<svg xmlns="http://www.w3.org/2000/svg" width="29" height="49" viewBox="0 0 29 49" fill="none">
<path d="M1.28242 1.08136C0.589591 1.76801 0.198026 2.70154 0.193836 3.67666C0.189646 4.65178 0.573174 5.58864 1.26008 6.28122L19.3972 24.5627L1.10364 42.6877C0.430346 43.3783 0.055445 44.3057 0.0596866 45.2699C0.0639281 46.2342 0.44697 47.1582 1.12632 47.8429C1.80566 48.5277 2.72696 48.9184 3.69177 48.9309C4.65658 48.9434 5.58772 48.5768 6.28462 47.9099L27.191 27.1962C27.8838 26.5095 28.2754 25.576 28.2796 24.6009C28.2838 23.6258 27.9002 22.6889 27.2133 21.9963L6.48575 1.10371C5.79863 0.411339 4.86448 0.0200293 3.88871 0.0158365C2.91294 0.0116437 1.97546 0.394911 1.28242 1.08136Z" fill="#9945FF"/>
</svg>